<?xml version="1.0" encoding="UTF-8"?>
<svg id="Layer_2" data-name="Layer 2" xmlns="http://www.w3.org/2000/svg" viewBox="0 0 604.93 169.48">
  <defs>
    <style>
      .cls-1 {
        fill: #a59b78;
      }

      .cls-2 {
        fill: #273d6c;
      }
    </style>
  </defs>
  <g>
    <path class="cls-2" d="M69.93,68.01c2-2,2-6.26,1.99-13.32v-13.02h-5.47c-1.96,0-3.54,1.59-3.54,3.54v24.57h.08c3.58,0,5.72-.55,6.94-1.77Zm-24.61,15.78h-5.72v5.47c0,1.96,1.59,3.54,3.54,3.54h17.26v-.08c0-3.58-.55-5.72-1.77-6.94-2-2-6.26-2-13.32-1.99Zm54.49,0c-6.99,0-11.29-.13-13.88-2.72-1.73-1.73-2.5-4.42-2.5-8.71v-.08h0v-27.07c0-1.96-1.59-3.54-3.54-3.54h-5.47v13.02c0,7.7,.01,12.35-2.72,15.08-1.73,1.73-4.42,2.5-8.71,2.5h-19.84c-1.96,0-3.54,1.59-3.54,3.54v5.47h5.71c7.7,0,12.35-.01,15.08,2.72,1.73,1.73,2.5,4.42,2.5,8.71v.08h0v59.83c0,1.96,1.59,3.54,3.54,3.54h5.47v-45.8c0-7.7-.01-12.34,2.72-15.07,1.73-1.73,4.42-2.5,8.71-2.5h19.84c1.96,0,3.54-1.59,3.54-3.54v-5.47h-5.72c-.41,0-.8,0-1.19,0Zm3.37-11.51h-17.26v.08c0,3.58,.55,5.72,1.77,6.95,2,2,6.26,1.99,13.3,1.99h5.73v-5.47c0-1.96-1.59-3.54-3.54-3.54Zm-26.79,24.79c-2,2-1.99,6.25-1.99,13.3v1.3s0,44.5,0,44.5h5.47c1.96,0,3.54-1.59,3.54-3.54v-57.33h-.08c-3.58,0-5.72,.55-6.95,1.77Z"/>
    <path class="cls-1" d="M144.86,69.41c-.96-5.57-2.38-11.05-4.24-16.28-1.83-5.14-4.09-10.1-6.72-14.75-2.61-4.6-5.61-8.93-8.91-12.86-3.31-3.94-6.95-7.51-10.82-10.63-3.91-3.15-8.1-5.85-12.44-8.04-4.42-2.23-9.06-3.94-13.77-5.09-9.67-2.36-19.91-2.36-29.58,0-4.71,1.15-9.34,2.86-13.77,5.09-4.34,2.19-8.52,4.89-12.44,8.04-3.87,3.11-7.51,6.69-10.82,10.63-3.3,3.93-6.3,8.26-8.91,12.86-2.63,4.64-4.89,9.6-6.72,14.75-1.86,5.24-3.29,10.71-4.24,16.28-.98,5.71-1.48,11.59-1.48,17.47s.5,11.76,1.48,17.47c.96,5.57,2.38,11.05,4.24,16.28,1.83,5.14,4.09,10.1,6.72,14.75,2.3,4.05,4.96,7.78,8.91,12.49,2.88,3.43,5.98,5.9,9.25,8.5,.52,.41,1.04,.83,1.57,1.25,3.81,3.07,11.49,7.34,17.09,9.97h0s.06,.03,.09,.05l1.15-2.22c-3.46-1.8-6.79-4.03-9.91-6.63-3.1-2.58-6.01-5.54-8.66-8.81-2.65-3.27-5.06-6.87-7.16-10.7-2.12-3.87-3.94-8.01-5.42-12.3-1.5-4.37-2.65-8.95-3.43-13.61-.79-4.78-1.2-9.7-1.2-14.62s.4-9.84,1.2-14.62c.77-4.66,1.93-9.23,3.43-13.61,1.47-4.29,3.29-8.43,5.42-12.3,2.1-3.83,4.51-7.43,7.16-10.7,2.65-3.27,5.56-6.23,8.66-8.81,3.12-2.6,6.46-4.83,9.91-6.63,3.51-1.83,7.19-3.24,10.93-4.18,7.66-1.93,15.78-1.93,23.44,0,3.74,.94,7.41,2.35,10.93,4.18,3.46,1.8,6.79,4.03,9.91,6.63,3.1,2.58,6.01,5.54,8.66,8.81,2.65,3.27,5.06,6.87,7.16,10.7,2.12,3.87,3.94,8.01,5.42,12.3,1.5,4.37,2.65,8.95,3.43,13.61,.79,4.78,1.2,9.7,1.2,14.62s-.4,9.84-1.2,14.62c-.77,4.65-1.93,9.23-3.43,13.61-1.47,4.29-3.29,8.43-5.42,12.3-2.1,3.83-4.51,7.43-7.16,10.7l-.71,.88c-2.43,3-4.53,5.6-7.32,7.93-4,3.33-7.65,5.51-11.16,6.68-2.26,.75-4.67,1.15-7.37,1.23-3.49,.1-8.24-.36-11-3.13-.4-.41-.75-.86-1.05-1.35-.03-.05-.07-.11-.1-.16-.13-.22-.24-.44-.35-.68-.04-.08-.07-.17-.11-.26-.07-.18-.14-.36-.21-.54-.03-.09-.06-.17-.09-.26-.08-.26-.15-.53-.21-.8-.02-.07-.03-.14-.04-.21-.06-.28-.11-.57-.14-.87,0-.02,0-.03,0-.05-.04-.33-.07-.67-.08-1.03,0-.05,0-.1,0-.15-.01-.34-.01-.68,0-1.04h-2.5c0,.32-.01,.63,0,.94,0,.24,.01,.47,.03,.71,0,.02,0,.05,0,.07,.3,4.83,2.63,7.59,5.23,9.17,.02,.01,.04,.03,.06,.04,.02,.01,.04,.02,.06,.03,.28,.16,.55,.32,.83,.45,2.69,1.36,6,1.9,9.35,1.9,5.73,0,11.51-1.55,14.26-3.08,3.74-1.88,7.79-4.1,12.06-7.54,4.7-3.78,8.36-7.26,11.19-10.63,3.3-3.93,6.3-8.26,8.91-12.86,2.63-4.64,4.89-9.6,6.72-14.75,1.86-5.24,3.29-10.71,4.24-16.28,.98-5.71,1.48-11.59,1.48-17.47s-.5-11.76-1.48-17.47Zm-25.1,77.52c1.42-2.07,2.76-4.22,3.98-6.45,2.19-3.99,4.07-8.26,5.59-12.69,1.55-4.5,2.73-9.22,3.53-14.01,.82-4.91,1.23-9.97,1.23-15.03s-.41-10.12-1.23-15.03c-.8-4.79-1.98-9.5-3.53-14.01-1.52-4.43-3.4-8.7-5.59-12.69-2.17-3.96-4.66-7.69-7.41-11.07-2.75-3.39-5.78-6.47-9-9.15-3.26-2.71-6.74-5.05-10.36-6.93-3.69-1.92-7.55-3.4-11.47-4.39-8.06-2.03-16.6-2.03-24.66,0-3.93,.99-7.79,2.47-11.47,4.39-3.61,1.88-7.1,4.22-10.36,6.93-3.22,2.68-6.25,5.76-9,9.15-2.75,3.39-5.24,7.11-7.41,11.07-2.19,3.99-4.07,8.26-5.59,12.69-1.55,4.5-2.73,9.22-3.53,14.01-.82,4.91-1.23,9.97-1.23,15.03s.41,10.12,1.23,15.03c.8,4.79,1.98,9.5,3.53,14.01,1.52,4.43,3.4,8.7,5.59,12.69,.95,1.72,1.96,3.39,3.02,5.02-2.31-3-4.2-5.83-5.83-8.74-2.34-4.19-4.35-8.66-5.97-13.31-1.65-4.73-2.92-9.68-3.78-14.72-.87-5.17-1.32-10.49-1.32-15.81s.44-10.64,1.32-15.81c.85-5.04,2.12-9.99,3.78-14.72,1.62-4.64,3.63-9.12,5.97-13.31,2.31-4.14,4.97-8.04,7.89-11.58,2.92-3.54,6.13-6.74,9.55-9.54,3.44-2.82,7.12-5.23,10.94-7.18,3.88-1.99,7.94-3.51,12.06-4.53,8.46-2.09,17.42-2.09,25.88,0,4.12,1.02,8.18,2.55,12.06,4.53,3.81,1.95,7.49,4.37,10.94,7.18,3.42,2.79,6.63,6,9.55,9.54,2.92,3.54,5.58,7.43,7.89,11.58,2.34,4.19,4.35,8.66,5.97,13.31,1.65,4.73,2.92,9.68,3.78,14.72,.87,5.17,1.32,10.49,1.32,15.81s-.44,10.64-1.32,15.81c-.85,5.03-2.12,9.99-3.78,14.72-1.62,4.64-3.63,9.12-5.97,13.31-2.01,3.61-4.3,7.01-6.79,10.17Zm22.64-43.01c-.93,5.43-2.32,10.77-4.14,15.87-1.78,5.01-3.98,9.83-6.54,14.35-2.38,4.19-5.09,8.15-8.07,11.78,1.82-2.53,3.53-5.17,5.08-7.94,2.41-4.31,4.47-8.92,6.14-13.7,1.7-4.86,3.01-9.95,3.88-15.13,.9-5.31,1.35-10.77,1.35-16.23s-.45-10.92-1.35-16.23c-.87-5.17-2.18-10.26-3.88-15.13-1.67-4.78-3.74-9.39-6.14-13.7-2.39-4.27-5.13-8.3-8.15-11.95-3.02-3.66-6.35-6.98-9.89-9.88-3.58-2.93-7.41-5.44-11.38-7.47-4.05-2.07-8.29-3.67-12.6-4.73-8.85-2.19-18.23-2.19-27.08,0-4.31,1.07-8.55,2.66-12.6,4.73-3.97,2.03-7.8,4.55-11.38,7.47-3.54,2.89-6.87,6.22-9.89,9.88-3.02,3.66-5.76,7.68-8.15,11.95-2.41,4.31-4.47,8.92-6.14,13.7-1.7,4.86-3.01,9.95-3.88,15.13-.9,5.31-1.35,10.77-1.35,16.23s.46,10.92,1.35,16.23c.88,5.17,2.18,10.26,3.88,15.13,1.67,4.78,3.74,9.39,6.14,13.7,1.1,1.97,2.31,3.9,3.68,5.86-2.79-3.49-4.86-6.5-6.67-9.69-2.56-4.52-4.76-9.34-6.54-14.35-1.81-5.1-3.2-10.44-4.14-15.87-.96-5.57-1.44-11.31-1.44-17.05s.49-11.48,1.44-17.05c.93-5.43,2.32-10.77,4.14-15.87,1.78-5.01,3.98-9.83,6.54-14.35,2.54-4.47,5.45-8.67,8.65-12.49,3.2-3.81,6.73-7.27,10.47-10.29,3.78-3.04,7.81-5.65,12-7.75,4.26-2.14,8.71-3.79,13.23-4.89,9.28-2.26,19.12-2.26,28.4,0,4.53,1.1,8.98,2.75,13.23,4.89,4.18,2.11,8.22,4.72,12,7.75,3.75,3.01,7.27,6.47,10.47,10.29,3.21,3.82,6.12,8.02,8.65,12.49,2.56,4.51,4.76,9.34,6.54,14.35,1.81,5.1,3.2,10.44,4.14,15.87,.96,5.57,1.44,11.31,1.44,17.05s-.49,11.48-1.44,17.05Z"/>
  </g>
  <g>
    <path class="cls-2" d="M185.04,82.29c-4.04,0-7.25-1.14-9.62-3.44-2.37-2.29-3.55-5.6-3.55-9.93v-7.77c0-4.33,1.18-7.64,3.55-9.93,2.37-2.29,5.57-3.44,9.62-3.44s7.05,1.11,9.22,3.32c2.16,2.21,3.25,5.23,3.25,9.05v.28h-5.07v-.43c0-2.24-.61-4.07-1.82-5.5-1.22-1.42-3.07-2.13-5.57-2.13s-4.5,.77-5.92,2.3c-1.42,1.53-2.13,3.66-2.13,6.37v7.96c0,2.69,.71,4.8,2.13,6.35,1.42,1.55,3.4,2.32,5.92,2.32s4.35-.72,5.57-2.16c1.22-1.44,1.82-3.26,1.82-5.47v-.81h5.07v.66c0,3.82-1.08,6.84-3.25,9.05-2.16,2.21-5.24,3.32-9.22,3.32Z"/>
    <path class="cls-2" d="M210.21,82.29c-1.67,0-3.17-.28-4.48-.85-1.31-.57-2.35-1.41-3.13-2.51-.77-1.11-1.16-2.45-1.16-4.03s.39-2.95,1.16-4c.77-1.06,1.83-1.86,3.17-2.39,1.34-.54,2.87-.81,4.57-.81h7.11v-1.52c0-1.36-.41-2.45-1.23-3.27-.82-.82-2.08-1.23-3.79-1.23s-2.95,.4-3.84,1.18c-.88,.79-1.47,1.82-1.75,3.08l-4.55-1.47c.38-1.26,.99-2.41,1.82-3.44,.84-1.03,1.95-1.86,3.34-2.49,1.39-.63,3.06-.95,5.02-.95,3.03,0,5.42,.77,7.15,2.32,1.74,1.55,2.61,3.74,2.61,6.59v9.62c0,.95,.44,1.42,1.33,1.42h1.99v4.07h-3.65c-1.11,0-2.01-.28-2.7-.85-.7-.57-1.04-1.34-1.04-2.32v-.14h-.71c-.25,.47-.63,1.03-1.14,1.66-.51,.63-1.25,1.18-2.23,1.63-.98,.46-2.27,.69-3.89,.69Zm.71-4.03c1.96,0,3.54-.56,4.74-1.68,1.2-1.12,1.8-2.66,1.8-4.62v-.47h-6.82c-1.3,0-2.34,.28-3.13,.83-.79,.55-1.18,1.37-1.18,2.44s.41,1.93,1.23,2.56c.82,.63,1.94,.95,3.36,.95Z"/>
    <path class="cls-2" d="M237.72,81.63c-1.42,0-2.55-.43-3.39-1.28-.84-.85-1.26-1.99-1.26-3.41v-14.55h-6.44v-4.12h6.44v-7.72h4.88v7.72h6.96v4.12h-6.96v13.69c0,.95,.44,1.42,1.33,1.42h4.88v4.12h-6.44Z"/>
    <path class="cls-2" d="M249.83,81.63V48.46h4.88v13.12h.76c.32-.6,.77-1.18,1.35-1.75,.58-.57,1.36-1.03,2.32-1.4,.96-.36,2.19-.54,3.67-.54,1.77,0,3.34,.4,4.71,1.18,1.37,.79,2.46,1.9,3.25,3.34,.79,1.44,1.18,3.17,1.18,5.19v14.02h-4.88v-13.65c0-2.02-.51-3.51-1.52-4.48-1.01-.96-2.4-1.45-4.17-1.45-2.02,0-3.64,.66-4.86,1.99-1.22,1.33-1.82,3.25-1.82,5.78v11.8h-4.88Z"/>
    <path class="cls-2" d="M289.28,82.29c-2.34,0-4.41-.48-6.23-1.45-1.82-.96-3.25-2.35-4.29-4.15-1.04-1.8-1.56-3.93-1.56-6.4v-.71c0-2.46,.52-4.59,1.56-6.37,1.04-1.78,2.47-3.17,4.29-4.15,1.82-.98,3.89-1.47,6.23-1.47s4.42,.49,6.25,1.47c1.83,.98,3.27,2.36,4.31,4.15,1.04,1.78,1.56,3.91,1.56,6.37v.71c0,2.46-.52,4.6-1.56,6.4-1.04,1.8-2.48,3.18-4.31,4.15-1.83,.96-3.92,1.45-6.25,1.45Zm0-4.36c2.15,0,3.89-.69,5.24-2.06,1.34-1.37,2.01-3.28,2.01-5.71v-.43c0-2.43-.66-4.34-1.99-5.71s-3.08-2.06-5.26-2.06-3.85,.69-5.19,2.06c-1.34,1.37-2.01,3.28-2.01,5.71v.43c0,2.43,.67,4.34,2.01,5.71,1.34,1.37,3.07,2.06,5.19,2.06Z"/>
    <path class="cls-2" d="M306.81,81.63V48.46h4.88v33.17h-4.88Z"/>
    <path class="cls-2" d="M320.67,55.1c-.95,0-1.75-.31-2.39-.92-.65-.62-.97-1.41-.97-2.39s.32-1.78,.97-2.39c.65-.62,1.45-.92,2.39-.92s1.78,.31,2.42,.92c.63,.62,.95,1.41,.95,2.39s-.32,1.78-.95,2.39c-.63,.62-1.44,.92-2.42,.92Zm-2.46,26.53v-23.36h4.88v23.36h-4.88Z"/>
    <path class="cls-2" d="M340.36,82.29c-2.24,0-4.27-.47-6.09-1.42-1.82-.95-3.25-2.32-4.31-4.12-1.06-1.8-1.59-3.96-1.59-6.49v-.62c0-2.53,.53-4.68,1.59-6.47,1.06-1.78,2.49-3.16,4.31-4.12,1.82-.96,3.85-1.45,6.09-1.45s4.15,.41,5.73,1.23c1.58,.82,2.85,1.91,3.81,3.27,.96,1.36,1.59,2.86,1.87,4.5l-4.74,.99c-.16-1.04-.49-1.99-1-2.84-.51-.85-1.22-1.53-2.13-2.04-.92-.5-2.07-.76-3.46-.76s-2.58,.31-3.67,.92c-1.09,.62-1.95,1.5-2.58,2.65-.63,1.15-.95,2.55-.95,4.19v.43c0,1.64,.32,3.05,.95,4.22,.63,1.17,1.49,2.05,2.58,2.65,1.09,.6,2.31,.9,3.67,.9,2.05,0,3.62-.53,4.69-1.59,1.07-1.06,1.75-2.41,2.04-4.05l4.74,1.09c-.38,1.61-1.05,3.1-2.01,4.45-.96,1.36-2.24,2.44-3.81,3.25-1.58,.81-3.49,1.21-5.73,1.21Z"/>
    <path class="cls-2" d="M380.77,82.29c-2.5,0-4.71-.44-6.63-1.33-1.93-.88-3.44-2.19-4.52-3.91-1.09-1.72-1.63-3.81-1.63-6.28v-1.18h5.07v1.18c0,2.34,.7,4.09,2.11,5.26,1.41,1.17,3.28,1.75,5.61,1.75s4.15-.5,5.35-1.49c1.2-1,1.8-2.28,1.8-3.86,0-1.04-.28-1.9-.85-2.56-.57-.66-1.37-1.19-2.42-1.59-1.04-.39-2.29-.77-3.74-1.11l-1.75-.43c-2.12-.5-3.96-1.13-5.52-1.87-1.56-.74-2.77-1.73-3.62-2.96s-1.28-2.81-1.28-4.74,.48-3.63,1.45-5.02c.96-1.39,2.3-2.46,4-3.22,1.71-.76,3.71-1.14,6.02-1.14s4.37,.4,6.18,1.18c1.82,.79,3.25,1.96,4.29,3.51,1.04,1.55,1.56,3.49,1.56,5.83v1.71h-5.07v-1.71c0-1.42-.29-2.57-.88-3.46-.58-.88-1.4-1.53-2.44-1.94-1.04-.41-2.26-.62-3.65-.62-2.02,0-3.59,.42-4.71,1.26-1.12,.84-1.68,2-1.68,3.48,0,1.01,.24,1.84,.73,2.49,.49,.65,1.21,1.18,2.16,1.59,.95,.41,2.13,.77,3.55,1.09l1.75,.43c2.15,.47,4.04,1.08,5.69,1.82,1.64,.74,2.94,1.75,3.89,3.01,.95,1.26,1.42,2.89,1.42,4.88s-.5,3.73-1.49,5.21c-.99,1.49-2.41,2.65-4.24,3.48-1.83,.84-4,1.26-6.49,1.26Z"/>
    <path class="cls-2" d="M408.87,82.29c-2.24,0-4.27-.47-6.09-1.42-1.82-.95-3.25-2.32-4.31-4.12-1.06-1.8-1.59-3.96-1.59-6.49v-.62c0-2.53,.53-4.68,1.59-6.47,1.06-1.78,2.49-3.16,4.31-4.12,1.82-.96,3.85-1.45,6.09-1.45s4.15,.41,5.73,1.23c1.58,.82,2.85,1.91,3.81,3.27,.96,1.36,1.59,2.86,1.87,4.5l-4.74,.99c-.16-1.04-.49-1.99-1-2.84-.51-.85-1.22-1.53-2.13-2.04-.92-.5-2.07-.76-3.46-.76s-2.58,.31-3.67,.92c-1.09,.62-1.95,1.5-2.58,2.65-.63,1.15-.95,2.55-.95,4.19v.43c0,1.64,.32,3.05,.95,4.22,.63,1.17,1.49,2.05,2.58,2.65,1.09,.6,2.31,.9,3.67,.9,2.05,0,3.62-.53,4.69-1.59,1.07-1.06,1.75-2.41,2.04-4.05l4.74,1.09c-.38,1.61-1.05,3.1-2.01,4.45-.96,1.36-2.24,2.44-3.81,3.25-1.58,.81-3.49,1.21-5.73,1.21Z"/>
    <path class="cls-2" d="M425.29,81.63V48.46h4.88v13.12h.76c.32-.6,.77-1.18,1.35-1.75,.58-.57,1.36-1.03,2.32-1.4,.96-.36,2.19-.54,3.67-.54,1.77,0,3.34,.4,4.71,1.18,1.37,.79,2.46,1.9,3.25,3.34,.79,1.44,1.18,3.17,1.18,5.19v14.02h-4.88v-13.65c0-2.02-.51-3.51-1.52-4.48-1.01-.96-2.4-1.45-4.17-1.45-2.02,0-3.64,.66-4.86,1.99-1.22,1.33-1.82,3.25-1.82,5.78v11.8h-4.88Z"/>
    <path class="cls-2" d="M464.74,82.29c-2.34,0-4.41-.48-6.23-1.45-1.82-.96-3.25-2.35-4.29-4.15-1.04-1.8-1.56-3.93-1.56-6.4v-.71c0-2.46,.52-4.59,1.56-6.37,1.04-1.78,2.47-3.17,4.29-4.15,1.82-.98,3.89-1.47,6.23-1.47s4.42,.49,6.25,1.47c1.83,.98,3.27,2.36,4.31,4.15,1.04,1.78,1.56,3.91,1.56,6.37v.71c0,2.46-.52,4.6-1.56,6.4-1.04,1.8-2.48,3.18-4.31,4.15-1.83,.96-3.92,1.45-6.25,1.45Zm0-4.36c2.15,0,3.89-.69,5.24-2.06,1.34-1.37,2.01-3.28,2.01-5.71v-.43c0-2.43-.66-4.34-1.99-5.71s-3.08-2.06-5.26-2.06-3.85,.69-5.19,2.06c-1.34,1.37-2.01,3.28-2.01,5.71v.43c0,2.43,.67,4.34,2.01,5.71,1.34,1.37,3.07,2.06,5.19,2.06Z"/>
    <path class="cls-2" d="M493.23,82.29c-2.34,0-4.41-.48-6.23-1.45-1.82-.96-3.25-2.35-4.29-4.15-1.04-1.8-1.56-3.93-1.56-6.4v-.71c0-2.46,.52-4.59,1.56-6.37,1.04-1.78,2.47-3.17,4.29-4.15,1.82-.98,3.89-1.47,6.23-1.47s4.42,.49,6.25,1.47c1.83,.98,3.27,2.36,4.31,4.15,1.04,1.78,1.56,3.91,1.56,6.37v.71c0,2.46-.52,4.6-1.56,6.4-1.04,1.8-2.48,3.18-4.31,4.15-1.83,.96-3.92,1.45-6.25,1.45Zm0-4.36c2.15,0,3.89-.69,5.24-2.06,1.34-1.37,2.01-3.28,2.01-5.71v-.43c0-2.43-.66-4.34-1.99-5.71s-3.08-2.06-5.26-2.06-3.85,.69-5.19,2.06c-1.34,1.37-2.01,3.28-2.01,5.71v.43c0,2.43,.67,4.34,2.01,5.71,1.34,1.37,3.07,2.06,5.19,2.06Z"/>
    <path class="cls-2" d="M510.77,81.63V48.46h4.88v33.17h-4.88Z"/>
    <path class="cls-2" d="M531.71,82.29c-2.97,0-5.43-.66-7.39-1.99-1.96-1.33-3.16-3.33-3.6-6.02l4.55-1.09c.25,1.3,.68,2.32,1.28,3.08,.6,.76,1.35,1.3,2.25,1.61,.9,.32,1.87,.47,2.91,.47,1.55,0,2.74-.3,3.58-.9,.84-.6,1.26-1.37,1.26-2.32s-.4-1.64-1.18-2.08c-.79-.44-1.96-.81-3.51-1.09l-1.61-.28c-1.58-.28-3.02-.69-4.31-1.23-1.3-.54-2.32-1.28-3.08-2.23-.76-.95-1.14-2.16-1.14-3.65,0-2.21,.82-3.92,2.46-5.14,1.64-1.22,3.82-1.82,6.54-1.82s4.78,.59,6.47,1.78c1.69,1.18,2.79,2.79,3.29,4.81l-4.55,1.28c-.28-1.42-.88-2.42-1.8-3.01-.92-.58-2.05-.88-3.41-.88s-2.37,.25-3.13,.73c-.76,.49-1.14,1.18-1.14,2.06,0,.95,.37,1.64,1.11,2.08,.74,.44,1.74,.77,3.01,.99l1.66,.28c1.67,.28,3.21,.68,4.6,1.18,1.39,.51,2.49,1.23,3.29,2.18,.81,.95,1.21,2.21,1.21,3.79,0,2.34-.87,4.15-2.61,5.45-1.74,1.29-4.07,1.94-7.01,1.94Z"/>
    <path class="cls-2" d="M172.73,129.01v-33.17h13.17c2.02,0,3.83,.4,5.43,1.21,1.59,.81,2.84,1.94,3.74,3.41,.9,1.47,1.35,3.23,1.35,5.28v.62c0,2.05-.47,3.82-1.4,5.31-.93,1.49-2.19,2.62-3.77,3.41-1.58,.79-3.36,1.18-5.35,1.18h-8.05v12.75h-5.12Zm5.12-17.39h7.53c1.8,0,3.24-.47,4.31-1.42,1.07-.95,1.61-2.24,1.61-3.89v-.47c0-1.67-.54-2.98-1.61-3.93-1.07-.95-2.51-1.42-4.31-1.42h-7.53v11.13Z"/>
    <path class="cls-2" d="M207.82,129.68c-1.67,0-3.17-.28-4.48-.85-1.31-.57-2.35-1.41-3.13-2.51-.77-1.11-1.16-2.45-1.16-4.03s.39-2.95,1.16-4c.77-1.06,1.83-1.86,3.17-2.39,1.34-.54,2.87-.81,4.57-.81h7.11v-1.52c0-1.36-.41-2.45-1.23-3.27-.82-.82-2.08-1.23-3.79-1.23s-2.95,.4-3.84,1.18c-.88,.79-1.47,1.82-1.75,3.08l-4.55-1.47c.38-1.26,.99-2.41,1.82-3.44,.84-1.03,1.95-1.86,3.34-2.49,1.39-.63,3.06-.95,5.02-.95,3.03,0,5.42,.77,7.15,2.32,1.74,1.55,2.61,3.74,2.61,6.59v9.62c0,.95,.44,1.42,1.33,1.42h1.99v4.07h-3.65c-1.11,0-2.01-.28-2.7-.85-.7-.57-1.04-1.34-1.04-2.32v-.14h-.71c-.25,.47-.63,1.03-1.14,1.66-.51,.63-1.25,1.18-2.23,1.63-.98,.46-2.27,.69-3.89,.69Zm.71-4.03c1.96,0,3.54-.56,4.74-1.68,1.2-1.12,1.8-2.66,1.8-4.62v-.47h-6.82c-1.3,0-2.34,.28-3.13,.83-.79,.55-1.18,1.37-1.18,2.44s.41,1.93,1.23,2.56c.82,.63,1.94,.95,3.36,.95Z"/>
    <path class="cls-2" d="M227.61,129.01v-23.36h4.79v2.75h.76c.38-.98,.99-1.7,1.82-2.16,.84-.46,1.87-.69,3.1-.69h2.8v4.41h-2.98c-1.58,0-2.87,.43-3.89,1.3-1.01,.87-1.52,2.2-1.52,4v13.74h-4.88Z"/>
    <path class="cls-2" d="M245.37,129.01v-23.36h4.79v2.75h.76c.38-.98,.99-1.7,1.82-2.16,.84-.46,1.87-.69,3.1-.69h2.8v4.41h-2.98c-1.58,0-2.87,.43-3.89,1.3-1.01,.87-1.52,2.2-1.52,4v13.74h-4.88Z"/>
    <path class="cls-2" d="M269.99,129.68c-1.67,0-3.17-.28-4.48-.85-1.31-.57-2.35-1.41-3.13-2.51-.77-1.11-1.16-2.45-1.16-4.03s.39-2.95,1.16-4c.77-1.06,1.83-1.86,3.17-2.39,1.34-.54,2.87-.81,4.57-.81h7.11v-1.52c0-1.36-.41-2.45-1.23-3.27-.82-.82-2.08-1.23-3.79-1.23s-2.95,.4-3.84,1.18c-.88,.79-1.47,1.82-1.75,3.08l-4.55-1.47c.38-1.26,.99-2.41,1.82-3.44,.84-1.03,1.95-1.86,3.34-2.49,1.39-.63,3.06-.95,5.02-.95,3.03,0,5.42,.77,7.15,2.32,1.74,1.55,2.61,3.74,2.61,6.59v9.62c0,.95,.44,1.42,1.33,1.42h1.99v4.07h-3.65c-1.11,0-2.01-.28-2.7-.85-.7-.57-1.04-1.34-1.04-2.32v-.14h-.71c-.25,.47-.63,1.03-1.14,1.66-.51,.63-1.25,1.18-2.23,1.63-.98,.46-2.27,.69-3.89,.69Zm.71-4.03c1.96,0,3.54-.56,4.74-1.68,1.2-1.12,1.8-2.66,1.8-4.62v-.47h-6.82c-1.3,0-2.34,.28-3.13,.83-.79,.55-1.18,1.37-1.18,2.44s.41,1.93,1.23,2.56c.82,.63,1.94,.95,3.36,.95Z"/>
    <path class="cls-2" d="M289.78,129.01v-23.36h4.79v2.75h.76c.44-.82,1.15-1.55,2.13-2.18,.98-.63,2.31-.95,3.98-.95s3.13,.36,4.19,1.07c1.06,.71,1.86,1.62,2.39,2.72h.76c.54-1.07,1.32-1.97,2.35-2.7,1.03-.73,2.49-1.09,4.38-1.09,1.52,0,2.86,.31,4.03,.92,1.17,.62,2.1,1.53,2.8,2.75,.69,1.22,1.04,2.72,1.04,4.52v15.54h-4.88v-15.16c0-1.42-.39-2.52-1.16-3.29-.77-.77-1.87-1.16-3.29-1.16-1.52,0-2.73,.49-3.65,1.47-.92,.98-1.37,2.39-1.37,4.22v13.93h-4.88v-15.16c0-1.42-.39-2.52-1.16-3.29-.77-.77-1.87-1.16-3.29-1.16-1.52,0-2.73,.49-3.65,1.47-.92,.98-1.37,2.39-1.37,4.22v13.93h-4.88Z"/>
    <path class="cls-2" d="M337.23,129.68c-1.67,0-3.17-.28-4.48-.85-1.31-.57-2.35-1.41-3.13-2.51-.77-1.11-1.16-2.45-1.16-4.03s.39-2.95,1.16-4c.77-1.06,1.83-1.86,3.17-2.39,1.34-.54,2.87-.81,4.57-.81h7.11v-1.52c0-1.36-.41-2.45-1.23-3.27-.82-.82-2.08-1.23-3.79-1.23s-2.95,.4-3.84,1.18c-.88,.79-1.47,1.82-1.75,3.08l-4.55-1.47c.38-1.26,.99-2.41,1.82-3.44,.84-1.03,1.95-1.86,3.34-2.49,1.39-.63,3.06-.95,5.02-.95,3.03,0,5.42,.77,7.15,2.32,1.74,1.55,2.61,3.74,2.61,6.59v9.62c0,.95,.44,1.42,1.33,1.42h1.99v4.07h-3.65c-1.11,0-2.01-.28-2.7-.85-.7-.57-1.04-1.34-1.04-2.32v-.14h-.71c-.25,.47-.63,1.03-1.14,1.66-.51,.63-1.25,1.18-2.23,1.63-.98,.46-2.27,.69-3.89,.69Zm.71-4.03c1.96,0,3.54-.56,4.74-1.68,1.2-1.12,1.8-2.66,1.8-4.62v-.47h-6.82c-1.3,0-2.34,.28-3.13,.83-.79,.55-1.18,1.37-1.18,2.44s.41,1.93,1.23,2.56c.82,.63,1.94,.95,3.36,.95Z"/>
    <path class="cls-2" d="M364.74,129.01c-1.42,0-2.55-.43-3.39-1.28-.84-.85-1.26-1.99-1.26-3.41v-14.55h-6.44v-4.12h6.44v-7.72h4.88v7.72h5.5v4.12h-5.5v13.69c0,.95,.44,1.42,1.33,1.42h4.88v4.12h-6.44Zm15.35,0c-1.42,0-2.56-.43-3.41-1.28-.85-.85-1.28-1.99-1.28-3.41v-14.55h-4.93v-4.12h4.93v-7.72h4.88v7.72h7.01v4.12h-7.01v13.69c0,.95,.46,1.42,1.37,1.42h4.83v4.12h-6.4Z"/>
    <path class="cls-2" d="M399.3,129.68c-1.67,0-3.17-.28-4.48-.85-1.31-.57-2.35-1.41-3.13-2.51-.77-1.11-1.16-2.45-1.16-4.03s.39-2.95,1.16-4c.77-1.06,1.83-1.86,3.17-2.39,1.34-.54,2.87-.81,4.57-.81h7.11v-1.52c0-1.36-.41-2.45-1.23-3.27-.82-.82-2.08-1.23-3.79-1.23s-2.95,.4-3.84,1.18c-.88,.79-1.47,1.82-1.75,3.08l-4.55-1.47c.38-1.26,.99-2.41,1.82-3.44,.84-1.03,1.95-1.86,3.34-2.49,1.39-.63,3.06-.95,5.02-.95,3.03,0,5.42,.77,7.15,2.32,1.74,1.55,2.61,3.74,2.61,6.59v9.62c0,.95,.44,1.42,1.33,1.42h1.99v4.07h-3.65c-1.11,0-2.01-.28-2.7-.85-.7-.57-1.04-1.34-1.04-2.32v-.14h-.71c-.25,.47-.63,1.03-1.14,1.66-.51,.63-1.25,1.18-2.23,1.63-.98,.46-2.27,.69-3.89,.69Zm.71-4.03c1.96,0,3.54-.56,4.74-1.68,1.2-1.12,1.8-2.66,1.8-4.62v-.47h-6.82c-1.3,0-2.34,.28-3.13,.83-.79,.55-1.18,1.37-1.18,2.44s.41,1.93,1.23,2.56c.82,.63,1.94,.95,3.36,.95Z"/>
    <path class="cls-2" d="M430.09,129.01v-4.55h4.45v-24.07h-4.45v-4.55h13.27c4.42,0,7.81,1.12,10.16,3.36,2.35,2.24,3.53,5.62,3.53,10.14v6.21c0,4.52-1.18,7.89-3.53,10.12-2.35,2.23-5.74,3.34-10.16,3.34h-13.27Zm9.62-4.64h3.7c2.87,0,5.01-.73,6.4-2.18,1.39-1.45,2.08-3.62,2.08-6.49v-6.54c0-2.91-.7-5.07-2.08-6.49-1.39-1.42-3.52-2.13-6.4-2.13h-3.7v23.83Z"/>
    <path class="cls-2" d="M464.81,102.48c-.95,0-1.75-.31-2.39-.92-.65-.62-.97-1.41-.97-2.39s.32-1.78,.97-2.39c.65-.62,1.45-.92,2.39-.92s1.78,.31,2.42,.92c.63,.62,.95,1.41,.95,2.39s-.32,1.78-.95,2.39c-.63,.62-1.44,.92-2.42,.92Zm-2.46,26.53v-23.36h4.88v23.36h-4.88Z"/>
    <path class="cls-2" d="M484.59,129.68c-2.34,0-4.41-.48-6.23-1.45-1.82-.96-3.25-2.35-4.29-4.15-1.04-1.8-1.56-3.93-1.56-6.4v-.71c0-2.46,.52-4.59,1.56-6.37,1.04-1.78,2.47-3.17,4.29-4.15,1.82-.98,3.89-1.47,6.23-1.47s4.42,.49,6.25,1.47c1.83,.98,3.27,2.36,4.31,4.15,1.04,1.78,1.56,3.91,1.56,6.37v.71c0,2.46-.52,4.6-1.56,6.4-1.04,1.8-2.48,3.18-4.31,4.15-1.83,.96-3.92,1.45-6.25,1.45Zm0-4.36c2.15,0,3.89-.69,5.24-2.06,1.34-1.37,2.01-3.28,2.01-5.71v-.43c0-2.43-.66-4.34-1.99-5.71s-3.08-2.06-5.26-2.06-3.85,.69-5.19,2.06c-1.34,1.37-2.01,3.28-2.01,5.71v.43c0,2.43,.67,4.34,2.01,5.71,1.34,1.37,3.07,2.06,5.19,2.06Z"/>
    <path class="cls-2" d="M512.98,129.68c-2.24,0-4.27-.47-6.09-1.42-1.82-.95-3.25-2.32-4.31-4.12-1.06-1.8-1.59-3.96-1.59-6.49v-.62c0-2.53,.53-4.68,1.59-6.47,1.06-1.78,2.49-3.16,4.31-4.12,1.82-.96,3.85-1.45,6.09-1.45s4.15,.41,5.73,1.23c1.58,.82,2.85,1.91,3.81,3.27,.96,1.36,1.59,2.86,1.87,4.5l-4.74,.99c-.16-1.04-.49-1.99-1-2.84-.51-.85-1.22-1.53-2.13-2.04-.92-.5-2.07-.76-3.46-.76s-2.58,.31-3.67,.92c-1.09,.62-1.95,1.5-2.58,2.65-.63,1.15-.95,2.55-.95,4.19v.43c0,1.64,.32,3.05,.95,4.22,.63,1.17,1.49,2.05,2.58,2.65,1.09,.6,2.31,.9,3.67,.9,2.05,0,3.62-.53,4.69-1.59,1.07-1.06,1.75-2.41,2.04-4.05l4.74,1.09c-.38,1.61-1.05,3.1-2.01,4.45-.96,1.36-2.24,2.44-3.81,3.25-1.58,.81-3.49,1.21-5.73,1.21Z"/>
    <path class="cls-2" d="M540.27,129.68c-2.37,0-4.44-.5-6.21-1.49-1.77-1-3.15-2.4-4.15-4.22-1-1.82-1.49-3.92-1.49-6.33v-.57c0-2.43,.49-4.56,1.47-6.37,.98-1.82,2.35-3.22,4.1-4.22,1.75-.99,3.78-1.49,6.09-1.49s4.21,.5,5.9,1.49c1.69,1,3.01,2.38,3.96,4.15,.95,1.77,1.42,3.84,1.42,6.21v1.85h-17.96c.06,2.05,.75,3.69,2.06,4.9,1.31,1.22,2.95,1.82,4.9,1.82,1.83,0,3.21-.41,4.15-1.23,.93-.82,1.65-1.77,2.16-2.84l4.03,2.08c-.44,.88-1.08,1.82-1.92,2.8-.84,.98-1.94,1.8-3.29,2.46-1.36,.66-3.1,1-5.21,1Zm-6.82-14.74h12.94c-.13-1.77-.76-3.15-1.9-4.15-1.14-1-2.62-1.49-4.45-1.49s-3.32,.5-4.48,1.49c-1.15,1-1.86,2.38-2.11,4.15Z"/>
    <path class="cls-2" d="M566.16,129.68c-2.97,0-5.43-.66-7.39-1.99-1.96-1.33-3.16-3.33-3.6-6.02l4.55-1.09c.25,1.3,.68,2.32,1.28,3.08,.6,.76,1.35,1.3,2.25,1.61,.9,.32,1.87,.47,2.91,.47,1.55,0,2.74-.3,3.58-.9,.84-.6,1.26-1.37,1.26-2.32s-.4-1.64-1.18-2.08c-.79-.44-1.96-.81-3.51-1.09l-1.61-.28c-1.58-.28-3.02-.69-4.31-1.23-1.3-.54-2.32-1.28-3.08-2.23-.76-.95-1.14-2.16-1.14-3.65,0-2.21,.82-3.92,2.46-5.14,1.64-1.22,3.82-1.82,6.54-1.82s4.78,.59,6.47,1.78c1.69,1.18,2.79,2.79,3.29,4.81l-4.55,1.28c-.28-1.42-.88-2.42-1.8-3.01-.92-.58-2.05-.88-3.41-.88s-2.37,.25-3.13,.73c-.76,.49-1.14,1.18-1.14,2.06,0,.95,.37,1.64,1.11,2.08,.74,.44,1.74,.77,3.01,.99l1.66,.28c1.67,.28,3.21,.68,4.6,1.18,1.39,.51,2.49,1.23,3.29,2.18,.81,.95,1.21,2.21,1.21,3.79,0,2.34-.87,4.15-2.61,5.45-1.74,1.29-4.07,1.94-7.01,1.94Z"/>
    <path class="cls-2" d="M591.57,129.68c-2.37,0-4.44-.5-6.21-1.49-1.77-1-3.15-2.4-4.15-4.22-1-1.82-1.49-3.92-1.49-6.33v-.57c0-2.43,.49-4.56,1.47-6.37,.98-1.82,2.35-3.22,4.1-4.22,1.75-.99,3.78-1.49,6.09-1.49s4.21,.5,5.9,1.49c1.69,1,3.01,2.38,3.96,4.15,.95,1.77,1.42,3.84,1.42,6.21v1.85h-17.96c.06,2.05,.75,3.69,2.06,4.9,1.31,1.22,2.95,1.82,4.9,1.82,1.83,0,3.21-.41,4.15-1.23,.93-.82,1.65-1.77,2.16-2.84l4.03,2.08c-.44,.88-1.08,1.82-1.92,2.8-.84,.98-1.94,1.8-3.29,2.46-1.36,.66-3.1,1-5.21,1Zm-6.82-14.74h12.94c-.13-1.77-.76-3.15-1.9-4.15-1.14-1-2.62-1.49-4.45-1.49s-3.32,.5-4.48,1.49c-1.15,1-1.86,2.38-2.11,4.15Z"/>
  </g>
</svg>