<?xml version="1.0" encoding="UTF-8"?>
<svg width="311px" height="97px" viewBox="0 0 311 97" version="1.1" xmlns="http://www.w3.org/2000/svg" xmlns:xlink="http://www.w3.org/1999/xlink">
    <!-- Generator: Sketch 47.1 (45422) - http://www.bohemiancoding.com/sketch -->
    <title>Logo-Red-Horiz</title>
    <desc>Created with Sketch.</desc>
    <defs>
        <polygon id="path-1" points="0 97 310.608221 97 310.608221 0.553708333 0 0.553708333"></polygon>
    </defs>
    <g id="Desktop" stroke="none" stroke-width="1" fill="none" fill-rule="evenodd">
        <g id="Elements" transform="translate(-802.000000, -214.000000)">
            <g id="Logo" transform="translate(802.000000, 157.000000)">
                <g id="Logo-Red-Horiz" transform="translate(0.000000, 57.000000)">
                    <g id="Logo1">
                        <polygon id="Fill-1" fill="#231F20" points="115.42768 31 115.42768 61.0329899 126 61.0329899 126 66 110 66 110 31"></polygon>
                        <polygon id="Fill-2" fill="#231F20" points="131 66 136 66 136 31 131 31"></polygon>
                        <polygon id="Fill-3" fill="#231F20" points="154.10757 35.9670101 154.10757 66 148.912351 66 148.912351 35.9670101 141 35.9670101 141 31 162 31 162 35.9670101"></polygon>
                        <g id="Group-21">
                            <path d="M172.057721,30.7760792 L172.057721,51.8048708 C172.057721,54.8037875 172.546435,56.9984125 173.527903,58.3847042 C174.985968,60.3893708 177.041799,61.3917042 179.695396,61.3917042 C182.36111,61.3917042 184.429058,60.3893708 185.887123,58.3847042 C186.868591,57.0428708 187.357305,54.8522875 187.357305,51.8048708 L187.357305,30.7760792 L192.620071,30.7760792 L192.620071,53.2558292 C192.620071,56.9337458 191.477045,59.9649958 189.186955,62.3455375 C186.610097,64.9968708 183.447591,66.3225375 179.695396,66.3225375 C175.943201,66.3225375 172.788773,64.9968708 170.228071,62.3455375 C167.933942,59.9649958 166.790916,56.9337458 166.790916,53.2558292 L166.790916,30.7760792 L172.057721,30.7760792 Z" id="Fill-4" fill="#231F20"></path>
                            <path d="M206.248738,46.8085625 L207.920868,46.8085625 C212.904945,46.8085625 215.401023,44.9008958 215.401023,41.0855625 C215.401023,37.5127292 212.977647,35.7303542 208.122816,35.7303542 L206.248738,35.7303542 L206.248738,46.8085625 Z M212.803971,50.8098125 L223.604153,65.6912292 L217.16201,65.6912292 L207.197894,51.3998958 L206.248738,51.3998958 L206.248738,65.6912292 L200.981932,65.6912292 L200.981932,30.7752708 L207.153465,30.7752708 C211.761919,30.7752708 215.090023,31.6401875 217.141816,33.3781042 C219.399595,35.3059792 220.530504,37.8522292 220.530504,41.0168542 C220.530504,43.4943958 219.823686,45.6162708 218.40601,47.3986458 C216.988335,49.1769792 215.122335,50.3126875 212.803971,50.8098125 L212.803971,50.8098125 Z" id="Fill-6" fill="#231F20"></path>
                            <path d="M245.999384,47.5110042 L260.418475,47.5110042 L260.418475,48.6628792 C260.418475,51.2859208 260.107475,53.6098792 259.489514,55.6266708 C258.887709,57.4979625 257.869891,59.2439625 256.440099,60.8767958 C253.200852,64.5223792 249.081112,66.3451708 244.076839,66.3451708 C239.197774,66.3451708 235.017449,64.5830042 231.535865,61.0546292 C228.058319,57.5141292 226.317527,53.2622958 226.317527,48.2991292 C226.317527,43.2349208 228.086592,38.9386292 231.624722,35.4102542 C235.166891,31.8697542 239.476462,30.0954625 244.553436,30.0954625 C247.279735,30.0954625 249.824281,30.6532125 252.191112,31.7687125 C254.45293,32.8882542 256.674358,34.6948792 258.859436,37.1966708 L255.107242,40.7937542 C252.243618,36.9824625 248.757995,35.0707542 244.646332,35.0707542 C240.950683,35.0707542 237.856839,36.3438792 235.356722,38.8941708 C232.856605,41.3959625 231.604527,44.5322958 231.604527,48.2991292 C231.604527,52.1912542 232.997969,55.3922542 235.784852,57.9102125 C238.389982,60.2462958 241.217255,61.4143375 244.258592,61.4143375 C246.851605,61.4143375 249.178047,60.5453792 251.241956,58.7953375 C253.305865,57.0291292 254.461008,54.9193792 254.699306,52.4620458 L245.999384,52.4620458 L245.999384,47.5110042 Z" id="Fill-8" fill="#231F20"></path>
                            <mask id="mask-2" fill="white">
                                <use xlink:href="#path-1"></use>
                            </mask>
                            <g id="Clip-11"></g>
                            <polygon id="Fill-10" fill="#231F20" mask="url(#mask-2)" points="267.035909 65.6892083 272.302714 65.6892083 272.302714 30.77325 267.035909 30.77325"></polygon>
                            <path d="M299.036597,52.2591542 L293.862688,40.3847375 L288.438364,52.2591542 L299.036597,52.2591542 Z M301.185325,57.2101958 L286.245208,57.2101958 L282.359727,65.6896125 L276.689026,65.6896125 L293.951545,28.5830708 L310.608221,65.6896125 L304.844623,65.6896125 L301.185325,57.2101958 Z" id="Fill-12" fill="#231F20" mask="url(#mask-2)"></path>
                            <path d="M64.5381545,48.1564583 L69.671674,48.1564583 C69.671674,48.1564583 74.8011545,65.3295 67.7248948,83.5655 C65.9558299,84.6244167 65.0712974,85.1579167 61.177739,86.5725 C62.5954143,83.7392917 70.2007779,68.518375 64.5381545,48.1564583" id="Fill-13" fill="#E32925" mask="url(#mask-2)"></path>
                            <path d="M74.0931247,48.1564583 L79.2226052,48.1564583 C79.2226052,48.1564583 82.4093455,58.2485 79.5780338,74.3585833 C77.9826442,75.951 74.2668,79.3136667 73.3863065,79.4915 C74.7999429,76.6623333 78.1603584,61.6111667 74.0931247,48.1564583" id="Fill-14" fill="#E32925" mask="url(#mask-2)"></path>
                            <path d="M83.6464792,48.33995 L89.1313883,48.33995 C89.1313883,48.33995 88.4245701,60.9095333 85.0601156,65.6867833 C85.2378299,63.03545 85.4155442,54.7136583 83.6464792,48.33995" id="Fill-15" fill="#E32925" mask="url(#mask-2)"></path>
                            <path d="M46.3175935,49.7056292 L46.3175935,23.7864208 C46.3175935,23.7864208 74.6226325,48.3355042 56.4028792,87.6366708 C54.9852039,88.1661292 52.3316065,88.8734208 50.207113,88.5217958 C51.6247883,86.5737125 66.484126,64.4415458 51.0956844,37.1805042 L51.0956844,59.2277958 L51.0795286,60.0442125 L51.0795286,73.6525042 C51.0795286,73.6525042 22.7744896,49.1074625 40.9982818,9.80225417 C42.4119182,9.2768375 45.0655156,8.56550417 47.1900091,8.92117083 C45.7723338,10.8652125 30.9129961,32.9973792 46.3054766,60.2584208 L46.3054766,50.5220458 L46.3175935,49.7056292 Z" id="Fill-16" fill="#E32925" mask="url(#mask-2)"></path>
                            <path d="M32.8593714,49.283275 L27.7258519,49.283275 C27.7258519,49.283275 22.5963714,32.1102333 29.6726312,13.8742333 C31.4416961,12.8153167 32.3262286,12.2818167 36.219787,10.8672333 C34.8021117,13.7004417 27.200787,28.9213583 32.8593714,49.283275" id="Fill-17" fill="#E32925" mask="url(#mask-2)"></path>
                            <path d="M23.3044013,49.283275 L18.1749208,49.283275 C18.1749208,49.283275 14.9922195,39.1912333 17.8235312,23.08115 C19.4148818,21.4887333 23.130726,18.1260667 24.0112195,17.9482333 C22.5975831,20.7774 19.2371675,35.8285667 23.3044013,49.283275" id="Fill-18" fill="#E32925" mask="url(#mask-2)"></path>
                            <path d="M13.7534701,49.0997833 L8.26856104,49.0997833 C8.26856104,49.0997833 8.97537922,36.5302 12.3357948,31.75295 C12.1580805,34.4042833 11.9844052,42.726075 13.7534701,49.0997833" id="Fill-19" fill="#E32925" mask="url(#mask-2)"></path>
                            <path d="M48.1908636,4.45391667 C23.7713052,4.45391667 3.89961688,24.334875 3.89961688,48.7748333 C3.89961688,73.2147917 23.7713052,93.0997917 48.1908636,93.0997917 C72.614461,93.0997917 92.4821104,73.2147917 92.4821104,48.7748333 C92.4821104,24.334875 72.614461,4.45391667 48.1908636,4.45391667 M48.1908636,97 C21.618539,97 -0.00201948052,75.3649583 -0.00201948052,48.7748333 C-0.00201948052,22.1847083 21.618539,0.553708333 48.1908636,0.553708333 C74.7672273,0.553708333 96.3837468,22.1847083 96.3837468,48.7748333 C96.3837468,75.3649583 74.7672273,97 48.1908636,97" id="Fill-20" fill="#E32925" mask="url(#mask-2)"></path>
                        </g>
                    </g>
                </g>
            </g>
        </g>
    </g>
</svg>